<svg data-v-423bf9ae="" xmlns="http://www.w3.org/2000/svg" viewBox="0 0 249.48386682952963 60" class="font"><!----><!----><defs data-v-423bf9ae=""><linearGradient data-v-423bf9ae="" gradientTransform="rotate(25)" id="85c165fd-2ee8-404e-adb9-160f5f1834ae" x1="0%" y1="0%" x2="100%" y2="0%"><stop data-v-423bf9ae="" offset="0%" style="stop-color: rgb(180, 30, 55); stop-opacity: 1;"></stop><stop data-v-423bf9ae="" offset="100%" style="stop-color: rgb(184, 157, 173); stop-opacity: 1;"></stop></linearGradient></defs><g data-v-423bf9ae="" id="509be10d-d639-46a9-abd6-f67e4af7da33" fill="url(#85c165fd-2ee8-404e-adb9-160f5f1834ae)" transform="matrix(4.838709826275912,0,0,4.838709826275912,-5.6612942727373365,-18.483871928610988)"><path d="M9.36 3.82L5.92 8.65L2.49 3.82L1.17 3.82L1.17 13.15L2.64 13.15L2.64 6.31L5.94 10.76L9.22 6.31L9.22 13.15L10.69 13.15L10.69 3.82ZM17.28 6.53L15.33 11.35L13.37 6.53L11.87 6.53L14.63 12.99L13.20 16.22L14.66 16.22L18.80 6.53ZM25.16 11.87L25.16 3.82L23.67 3.82L23.67 13.15L28.77 13.15L28.77 11.87ZM32.94 13.34C35.03 13.34 36.49 11.81 36.49 9.84C36.49 7.89 35.03 6.36 32.94 6.36C30.83 6.36 29.39 7.89 29.39 9.84C29.39 11.81 30.83 13.34 32.94 13.34ZM32.94 12.13C31.72 12.13 30.86 11.14 30.86 9.84C30.86 8.56 31.72 7.57 32.94 7.57C34.15 7.57 35.01 8.56 35.01 9.84C35.01 11.14 34.15 12.13 32.94 12.13ZM43.09 6.53L42.90 7.47C42.39 6.80 41.62 6.36 40.60 6.36C38.88 6.36 37.51 7.67 37.51 9.81C37.51 11.96 38.88 13.27 40.60 13.27C41.56 13.27 42.32 12.89 42.83 12.26L42.83 12.43C42.83 14.13 42.32 15.02 40.92 15.02C40.56 15.02 40.16 14.95 39.81 14.79L39.49 15.98C39.93 16.13 40.47 16.22 40.99 16.22C43.15 16.22 44.25 14.95 44.25 12.54L44.25 6.53ZM40.94 12.07C39.74 12.07 38.95 11.11 38.95 9.81C38.95 8.53 39.74 7.54 40.94 7.54C42.18 7.54 42.98 8.53 42.98 9.81C42.98 11.11 42.18 12.07 40.94 12.07ZM49.19 13.34C51.28 13.34 52.73 11.81 52.73 9.84C52.73 7.89 51.28 6.36 49.19 6.36C47.08 6.36 45.63 7.89 45.63 9.84C45.63 11.81 47.08 13.34 49.19 13.34ZM49.19 12.13C47.96 12.13 47.10 11.14 47.10 9.84C47.10 8.56 47.96 7.57 49.19 7.57C50.40 7.57 51.26 8.56 51.26 9.84C51.26 11.14 50.40 12.13 49.19 12.13Z"></path></g><!----><!----></svg>